<svg xmlns="http://www.w3.org/2000/svg" viewBox="0 0 24.02 24.01"><path d="M18.78 13.91A8.83 8.83 0 0117 15.5c3.19.7 5 2 5 3C22 20 18.2 22 12 22S2 20 2 18.5c0-1 1.84-2.3 5-3a8.83 8.83 0 01-1.81-1.59C2.22 14.82 0 16.36 0 18.5 0 22.08 6.19 24 12 24s12-1.93 12-5.51c0-2.13-2.2-3.67-5.22-4.58z" fill="#fff"/><path d="M12 0a7.2 7.2 0 00-5.11 12.26A7.11 7.11 0 009 13.71a6.63 6.63 0 00.91.36l.58 1.08L12 20l1.56-4.85.59-1.08a6.63 6.63 0 00.91-.36A7.2 7.2 0 0012 0zm0 9.63a2.43 2.43 0 112.44-2.43A2.43 2.43 0 0112 9.63z" fill="#fff"/></svg>