<svg xmlns="http://www.w3.org/2000/svg" viewBox="0 0 24 24"><path d="M23 0H1C.4 0 0 .4 0 1v18c0 .6.4 1 1 1h7.5l-3 4h13l-3-4H23c.6 0 1-.4 1-1V1c0-.6-.4-1-1-1zm-1 18H2V2h20v16z" fill="#fff"/><path d="M17.4 10.7V9.3l-1.5-.2c-.1-.4-.3-.8-.5-1.2l.9-1.2-1-1-1.2.9c-.4-.2-.8-.4-1.2-.5l-.3-1.5h-1.4L11 6.1c-.4.1-.8.3-1.2.5l-1.1-.9-1 1 .9 1.2c-.2.4-.4.8-.5 1.2l-1.5.2v1.4l1.4.2c.1.4.3.9.5 1.2l-.9 1.2 1 1 1.2-.8c.4.2.8.4 1.3.5l.2 1.4h1.4l.2-1.4c.5-.1.9-.3 1.2-.5l1.2.8 1-1-.9-1.2c.2-.4.4-.8.5-1.2l1.5-.2zm-3.2-.7c0 1.2-1 2.2-2.2 2.2s-2.2-1-2.2-2.2c0-1.2 1-2.2 2.2-2.2s2.2 1 2.2 2.2z" fill="#fff"/></svg>